<?xml version="1.0" encoding="UTF-8" standalone="no"?>
<!-- Created with Inkscape (http://www.inkscape.org/) -->

<svg
   width="37mm"
   height="45mm"
   viewBox="0 0 37 45"
   version="1.1"
   id="svg2458"
   inkscape:version="1.1.1 (3bf5ae0d25, 2021-09-20, custom)"
   sodipodi:docname="mccli-notext.svg"
   inkscape:export-filename="/home/diana/Dropbox/HIFIS/ssh-oidc/logo/png300dpi(print)/mccli-notext.png"
   inkscape:export-xdpi="299.9624"
   inkscape:export-ydpi="299.9624"
   xmlns:inkscape="http://www.inkscape.org/namespaces/inkscape"
   xmlns:sodipodi="http://sodipodi.sourceforge.net/DTD/sodipodi-0.dtd"
   xmlns="http://www.w3.org/2000/svg"
   xmlns:svg="http://www.w3.org/2000/svg">
  <sodipodi:namedview
     id="namedview2460"
     pagecolor="#ffffff"
     bordercolor="#666666"
     borderopacity="1.0"
     inkscape:pageshadow="2"
     inkscape:pageopacity="0.0"
     inkscape:pagecheckerboard="0"
     inkscape:document-units="mm"
     showgrid="false"
     fit-margin-top="0"
     fit-margin-left="0"
     fit-margin-right="0"
     fit-margin-bottom="0"
     inkscape:zoom="3.6636623"
     inkscape:cx="155.1726"
     inkscape:cy="124.6021"
     inkscape:window-width="2560"
     inkscape:window-height="1440"
     inkscape:window-x="0"
     inkscape:window-y="0"
     inkscape:window-maximized="1"
     inkscape:current-layer="layer1" />
  <defs
     id="defs2455" />
  <g
     inkscape:label="Layer 1"
     inkscape:groupmode="layer"
     id="layer1"
     transform="translate(-419.71665,-60.705641)">
    <g
       id="g15893"
       transform="translate(-829.43774,-2272.7904)">
      <path
         id="rect459196-0"
         style="fill:#fd5f00;stroke-width:11.3386;stroke-linecap:square;stop-color:#000000"
         d="m 4736.9414,8900.7715 c -5.5722,0 -10.0586,4.3621 -10.0586,9.7793 v 45.1308 c 0,5.4169 4.4859,28.2403 64.252,28.2403 59.766,0 64.2519,-22.8234 64.2519,-28.2403 v -45.1308 c 0,-5.4172 -4.4845,-9.7793 -10.0566,-9.7793 z m 36.7363,16.2383 c 5.9486,6.898 11.8212,13.8689 17.7403,20.7949 -0.041,1.2374 -0.021,2.5542 -0.5996,3.6816 -7.2016,5.9728 -14.5073,11.8374 -21.7266,17.7949 -1.9234,-2.0325 -3.8481,-4.065 -5.7715,-6.0976 5.839,-4.6054 11.6771,-9.2153 17.5176,-13.8184 -4.7388,-5.729 -9.4741,-11.4612 -14.2109,-17.1914 2.3501,-1.7212 4.701,-3.4428 7.0507,-5.164 z m 43.0332,30.3086 c 0.5881,-0.012 1.1224,0.077 1.4981,0.4589 1.0137,2.9473 1.0692,6.4552 -0.2695,9.2989 -6.9718,0.079 -14.0029,-7e-4 -20.9981,0.037 -1.1543,-2.9579 -0.9333,-6.3993 -0.039,-9.4082 l 0.051,-0.086 0.1172,-0.2265 h 17.0488 c 0.7576,0.1717 1.7323,-0.057 2.5918,-0.074 z"
         transform="scale(0.26458333)" />
      <path
         id="path459194-6"
         style="font-size:21.3333px;line-height:1.25;font-family:Kollektif;-inkscape-font-specification:'Kollektif, Normal';letter-spacing:0px;word-spacing:0px;white-space:pre;fill:#fd5f00;fill-opacity:1;stroke:none;stroke-width:4.44446;stroke-miterlimit:4;stroke-dasharray:none;stroke-opacity:1;stop-color:#000000"
         d="m 1266.6591,2335.03 c -6.1549,0.5085 -11.4626,5.587 -12.7159,11.5527 -0.7396,4.1006 -0.5136,3.7949 -0.4705,7.936 -0.01,0.8623 -0.016,1.7248 -0.022,2.5871 1.561,-0.029 3.1221,-0.053 4.6831,-0.083 0.03,-3.5442 -0.01,-2.6151 -0.051,-6.1567 0.087,-3.7567 1.7075,-7.8251 5.2303,-9.5774 2.3785,-1.1997 5.2214,-1.3957 7.6295,-0.4388 2.8601,1.0751 4.8578,3.9933 5.4064,6.8024 0.3646,1.8666 0.1007,0.073 0.2586,1.9451 0.1646,1.9508 3.2684,2.119 4.4432,0.8219 1.195,-1.4488 0.8083,-2.7486 0.4653,-4.0705 -0.9242,-3.5613 -3.413,-6.8643 -6.428,-8.9731 -2.3899,-1.6716 -5.4418,-2.5673 -8.4291,-2.3466 z"
         sodipodi:nodetypes="ccccccccsscaacc" />
    </g>
  </g>
</svg>
